<svg id="SvgjsSvg1001" width="288" height="288" xmlns="http://www.w3.org/2000/svg" version="1.1" xmlns:xlink="http://www.w3.org/1999/xlink" xmlns:svgjs="http://svgjs.com/svgjs"><defs id="SvgjsDefs1002"></defs><g id="SvgjsG1008"><svg xmlns="http://www.w3.org/2000/svg" data-name="Layer 1" viewBox="0 0 168 168" width="288" height="288"><path fill="#2d4356" d="M84 85.905a14 14 0 1 0-14-14 14.016 14.016 0 0 0 14 14Zm0-24a10 10 0 1 1-10 10 10 10 0 0 1 10-10Z" class="color2d4356 svgShape"></path><path fill="#c12222" d="M84 77.905a6 6 0 1 0-6-6 6.007 6.007 0 0 0 6 6Zm0-8a2 2 0 1 1-2 2 2 2 0 0 1 2-2Z" class="color0bceb2 svgShape"></path><path fill="#2d4356" d="m107.585 57.537 5.038 54.616a5.988 5.988 0 0 1 1.086 1.035l2.03-10.804-4.17-45.214a7.963 7.963 0 0 0-7.967-7.265H64.398a7.963 7.963 0 0 0-7.966 7.265l-2.384 25.847a6.011 6.011 0 0 1 3.798 2.37l2.569-27.85a4 4 0 0 1 3.983-3.632h39.204a4 4 0 0 1 3.983 3.632Z" class="color2d4356 svgShape"></path><path fill="#c12222" d="m88.462 112.421 1.566 3.444a10.003 10.003 0 1 0-13.388-1.214l.79-1.974a5.977 5.977 0 0 1 1.278-1.947 6 6 0 1 1 9.578 1.37c.058.108.125.209.176.321Z" class="color0bceb2 svgShape"></path><path fill="#2d4356" d="M97.39 119.905a17.995 17.995 0 1 0-23.891 2.598l1.541-3.854a14 14 0 1 1 16.674.927l.15.329zM46.653 76.613l3.252.284a1.995 1.995 0 0 0 2.158-1.741l.253-2c1.105-8.748 1.379-10.916 1.447-11.507h.007a30.722 30.722 0 0 1 28.17-26.89 32.82 32.82 0 0 1 3.648-.045c14.8.654 26.885 12.101 28.733 27.22l1.615 13.213a2 2 0 0 0 1.983 1.758c.058 0 .117-.003.176-.008l3.252-.284a11.212 11.212 0 0 0 7.769-4.24 13.382 13.382 0 0 0 2.775-10.05 12.53 12.53 0 0 0-6.564-9.69 43.375 43.375 0 0 0-82.281-.19 12.593 12.593 0 0 0-6.937 9.881 13.382 13.382 0 0 0 2.775 10.049 11.212 11.212 0 0 0 7.77 4.24zm-6.575-13.787a8.43 8.43 0 0 1 5.263-7.005 1.999 1.999 0 0 0 1.251-1.314c4.852-16.252 20.3-27.602 37.564-27.602a39.227 39.227 0 0 1 37.604 27.739 1.999 1.999 0 0 0 1.173 1.29 8.42 8.42 0 0 1 4.989 6.891 9.363 9.363 0 0 1-1.919 7.036 7.253 7.253 0 0 1-5.005 2.767l-1.326.116-1.38-11.295c-2.087-17.067-15.767-29.991-32.528-30.731a37.27 37.27 0 0 0-4.099.05 34.73 34.73 0 0 0-31.864 30.384l-1.453 11.502-.012.09-1.334-.116a7.253 7.253 0 0 1-5.005-2.767 9.362 9.362 0 0 1-1.919-7.035z" class="color2d4356 svgShape"></path><circle cx="67" cy="59.905" r="2" fill="#c12222" class="color0bceb2 svgShape"></circle><circle cx="101" cy="59.905" r="2" fill="#c12222" class="color0bceb2 svgShape"></circle><circle cx="104" cy="86.905" r="2" fill="#c12222" class="color0bceb2 svgShape"></circle><circle cx="64" cy="86.905" r="2" fill="#c12222" class="color0bceb2 svgShape"></circle><circle cx="2" cy="148.905" r="2" fill="#2d4356" class="color2d4356 svgShape"></circle><path fill="#2d4356" d="M11 146.905H8a2 2 0 0 0 0 4h3a2 2 0 0 0 0-4zm149 0h-3a2 2 0 0 0 0 4h3a2 2 0 0 0 0-4z" class="color2d4356 svgShape"></path><circle cx="166" cy="148.905" r="2" fill="#2d4356" class="color2d4356 svgShape"></circle><path fill="#c12222" d="M118.154 154.905h-8.308a2.006 2.006 0 0 0 0 4h8.308a2.006 2.006 0 0 0 0-4zm-60 0h-8.308a2.006 2.006 0 0 0 0 4h8.308a2.006 2.006 0 0 0 0-4zm45.846 0H64a2 2 0 0 0 0 4h15.94v2H72a2 2 0 0 0 0 4h25a2 2 0 0 0 0-4h-8.94v-2H104a2 2 0 0 0 0-4z" class="color0bceb2 svgShape"></path><path fill="#2d4356" d="M150.721 146.905h-17.735l5.353-13H146a2 2 0 0 0 0-4h-9a2 2 0 0 0-1.85 1.238l-3.977 9.661-5.184-50.105a2 2 0 0 0-3.955-.163l-6.94 36.948-4.221-11.28a2 2 0 0 0-3.452-.527l-6.4 8.228H89.289l-4.467-9.828a2.024 2.024 0 0 0-1.867-1.172 2 2 0 0 0-1.81 1.257l-5.498 13.743H66a2 2 0 0 0-1.876 1.308l-3.998 10.85-5.136-51.357a2 2 0 0 0-3.956-.17l-6.94 36.948-4.221-11.28a2 2 0 0 0-3.452-.527l-6.4 8.228H22a2 2 0 0 0 0 4h9a2 2 0 0 0 1.579-.772l4.802-6.175 5.481 14.647a2 2 0 0 0 3.84-.331l5.694-30.316 4.394 43.947H17.279a2.017 2.017 0 1 0 0 4H150.72a2.017 2.017 0 1 0 0-4zm-83.326-15H77a2 2 0 0 0 1.857-1.258l4.26-10.65 3.062 6.735A2 2 0 0 0 88 127.905h14a2 2 0 0 0 1.579-.772l4.802-6.175 5.481 14.647a2 2 0 0 0 3.84-.331l5.724-30.48 4.357 42.11H61.868zm58.243-94a3 3 0 1 0-3-3 3.003 3.003 0 0 0 3 3zm0-4.5a1.5 1.5 0 1 1-1.5 1.5 1.501 1.501 0 0 1 1.5-1.5zm32.667 34.5a2 2 0 1 0 2 2 2.002 2.002 0 0 0-2-2zm0 3a1 1 0 1 1 1-1 1.001 1.001 0 0 1-1 1zM8 57.57a2 2 0 1 0 2 2 2.002 2.002 0 0 0-2-2zm0 3a1 1 0 1 1 1-1 1.001 1.001 0 0 1-1 1zm153.971-28.666a2 2 0 1 0 2 2 2.002 2.002 0 0 0-2-2zm0 3a1 1 0 1 1 1-1 1.001 1.001 0 0 1-1 1zM35.667 34.57a2 2 0 1 0-2 2 2.002 2.002 0 0 0 2-2zm-3 0a1 1 0 1 1 1 1 1.001 1.001 0 0 1-1-1z" class="color2d4356 svgShape"></path><path fill="#c12222" d="m144.554 5.583 1.487-1.956-.939-.532-.954 2.19h-.032l-.969-2.174-.956.547 1.472 1.909v.032l-2.301-.298v1.064l2.316-.297v.031l-1.487 1.909.892.563 1.018-2.206h.031l.938 2.19.986-.563-1.502-1.877v-.032l2.362.282V5.301l-2.362.313v-.031zM7 6.031 6.144 7.13l.514.325.586-1.271h.018l.54 1.262.568-.325-.865-1.081v-.018l1.36.162v-.613l-1.36.181v-.018l.856-1.127-.54-.306-.55 1.261h-.018L6.695 4.31l-.551.315.848 1.1v.018l-1.325-.172v.613L7 6.013v.018zM48.971 6.951V5.908l-2.316.307v-.031l1.458-1.918-.921-.522-.936 2.148h-.031l-.951-2.133-.937.538 1.443 1.872V6.2l-2.257-.292v1.043l2.272-.291v.031l-1.458 1.872.874.553.999-2.165h.03l.921 2.149.967-.552-1.473-1.842v-.031l2.316.276zM98.333 13.186l1.258-1.654-.795-.45-.807 1.853h-.027l-.82-1.84-.809.463 1.245 1.615v.027l-1.946-.252v.9l1.959-.251v.026l-1.258 1.615.755.477.861-1.867h.026l.794 1.854.835-.477-1.271-1.589v-.026l1.998.238v-.9l-1.998.265v-.027z" class="color0bceb2 svgShape"></path></svg></g></svg>